<svg version="1.1" viewBox="0.0 0.0 600.0 150.0" fill="none" stroke="none" stroke-linecap="square" stroke-miterlimit="10" xmlns:xlink="http://www.w3.org/1999/xlink" xmlns="http://www.w3.org/2000/svg"><clipPath id="p.0"><path d="m0 0l600.0 0l0 150.0l-600.0 0l0 -150.0z" clip-rule="nonzero"/></clipPath><g clip-path="url(#p.0)"><path fill="#000000" fill-opacity="0.0" d="m0 0l600.0 0l0 150.0l-600.0 0z" fill-rule="evenodd"/><path fill="#000000" fill-opacity="0.0" d="m42.32185 17.610237l484.72443 0l0 130.89764l-484.72443 0z" fill-rule="evenodd"/><path fill="#ffffff" d="m132.1656 63.207733l-14.484375 53.5625l-18.15625 0l-8.4375 -34.75l-8.734375 34.75l-18.0625 0l-14.578129 -53.5625l16.406254 0l7.59375 38.296875l9.015625 -38.296875l17.375 0l9.125 38.109375l7.484375 -38.109375l15.453125 0zm2.9797058 26.6875q0 -8.265625 3.109375 -14.5q3.125 -6.234375 8.5 -9.59375q5.390625 -3.375 12.0 -3.375q5.671875 0 9.9375 2.3125q4.28125 2.296875 6.578125 6.046875l0 -7.578125l16.421875 0l0 53.5625l-16.421875 0l0 -7.578125q-2.390625 3.734375 -6.671875 6.046875q-4.265625 2.296875 -9.9375 2.296875q-6.515625 0 -11.90625 -3.40625q-5.375 -3.40625 -8.5 -9.6875q-3.109375 -6.296875 -3.109375 -14.546875zm40.125 0.09375q0 -6.140625 -3.40625 -9.6875q-3.40625 -3.5625 -8.296875 -3.5625q-4.90625 0 -8.3125 3.5q-3.40625 3.5 -3.40625 9.65625q0 6.140625 3.40625 9.75q3.40625 3.59375 8.3125 3.59375q4.890625 0 8.296875 -3.546875q3.40625 -3.5625 3.40625 -9.703125zm83.04335 -26.78125l-33.59375 79.0l-17.671875 0l12.296875 -27.265625l-21.796875 -51.734375l18.328125 0l12.390625 33.5l12.28125 -33.5l17.765625 0zm22.375092 7.578125q2.390625 -3.75 6.609375 -6.046875q4.234375 -2.3125 9.890625 -2.3125q6.6249695 0 11.9999695 3.375q5.375 3.359375 8.5 9.59375q3.125 6.234375 3.125 14.5q0 8.25 -3.125 14.546875q-3.125 6.28125 -8.5 9.6875q-5.375 3.40625 -11.9999695 3.40625q-5.5625 0 -9.84375 -2.296875q-4.265625 -2.3125 -6.65625 -5.953125l0 33.015625l-16.421875 0l0 -79.09375l16.421875 0l0 7.578125zm23.421844 19.109375q0 -6.15625 -3.421875 -9.65625q-3.4062195 -3.5 -8.3905945 -3.5q-4.890625 0 -8.3125 3.5625q-3.40625 3.546875 -3.40625 9.6875q0 6.140625 3.40625 9.703125q3.421875 3.546875 8.3125 3.546875q4.890625 0 8.3437195 -3.59375q3.46875 -3.609375 3.46875 -9.75zm49.730865 27.640625q-7.875 0 -14.171875 -3.359375q-6.28125 -3.359375 -9.890625 -9.59375q-3.59375 -6.25 -3.59375 -14.59375q0 -8.265625 3.640625 -14.546875q3.65625 -6.28125 9.984375 -9.640625q6.34375 -3.375 14.21875 -3.375q7.875 0 14.203125 3.375q6.34375 3.359375 9.984375 9.640625q3.65625 6.28125 3.65625 14.546875q0 8.25 -3.703125 14.546875q-3.703125 6.28125 -10.09375 9.640625q-6.375 3.359375 -14.234375 3.359375zm0 -14.203125q4.703125 0 8.0 -3.453125q3.3125 -3.46875 3.3125 -9.890625q0 -6.4375 -3.21875 -9.890625q-3.203125 -3.453125 -7.90625 -3.453125q-4.796875 0 -7.96875 3.40625q-3.171875 3.40625 -3.171875 9.9375q0 6.421875 3.109375 9.890625q3.125 3.453125 7.84375 3.453125zm45.011353 -45.703125q-4.3125 0 -7.046875 -2.53125q-2.734375 -2.546875 -2.734375 -6.296875q0 -3.84375 2.734375 -6.375q2.734375 -2.546875 7.046875 -2.546875q4.234375 0 6.96875 2.546875q2.734375 2.53125 2.734375 6.375q0 3.75 -2.734375 6.296875q-2.734375 2.53125 -6.96875 2.53125zm8.171875 5.578125l0 53.5625l-16.421875 0l0 -53.5625l16.421875 0zm44.538727 -0.578125q9.40625 0 15.015625 6.09375q5.625 6.09375 5.625 16.75l0 31.296875l-16.328125 0l0 -29.09375q0 -5.375 -2.78125 -8.34375q-2.78125 -2.984375 -7.484375 -2.984375q-4.703125 0 -7.484375 2.984375q-2.78125 2.96875 -2.78125 8.34375l0 29.09375l-16.421875 0l0 -53.5625l16.421875 0l0 7.09375q2.484375 -3.546875 6.703125 -5.609375q4.234375 -2.0625 9.515625 -2.0625zm61.92273 40.21875l0 13.921875l-8.359375 0q-8.921875 0 -13.921875 -4.359375q-4.984375 -4.375 -4.984375 -14.265625l0 -21.3125l-6.53125 0l0 -13.625l6.53125 0l0 -13.0625l16.40625 0l0 13.0625l10.765625 0l0 13.625l-10.765625 0l0 21.5q0 2.40625 1.15625 3.46875q1.15625 1.046875 3.84375 1.046875l5.859375 0z" fill-rule="nonzero"/><path fill="#ffffff" d="m494.26477 37.499527l0 0c19.882263 0 36.0 -16.117748 36.0 -36.0l0 0l0 0c0 19.882252 16.117737 36.0 36.0 36.0l0 0l0 0c-19.882263 0 -36.0 16.117748 -36.0 36.0l0 0c0 -19.882252 -16.117737 -36.0 -36.0 -36.0z" fill-rule="evenodd"/></g></svg>