<svg version="1.1" viewBox="0.0 0.0 300.0 75.0" fill="none" stroke="none" stroke-linecap="square" stroke-miterlimit="10" xmlns:xlink="http://www.w3.org/1999/xlink" xmlns="http://www.w3.org/2000/svg"><clipPath id="p.0"><path d="m0 0l300.0 0l0 75.0l-300.0 0l0 -75.0z" clip-rule="nonzero"/></clipPath><g clip-path="url(#p.0)"><path fill="#000000" fill-opacity="0.0" d="m0 0l300.0 0l0 75.0l-300.0 0z" fill-rule="evenodd"/><path fill="#000000" fill-opacity="0.0" d="m21.160925 8.805119l242.36221 0l0 65.44882l-242.36221 0z" fill-rule="evenodd"/><path fill="#ffffff" d="m65.5828 31.103867l-7.25 26.78125l-9.0625 0l-4.234375 -17.375l-4.359375 17.375l-9.031252 0l-7.296875 -26.78125l8.218752 0l3.78125 19.15625l4.515625 -19.15625l8.6875 0l4.5625 19.046875l3.75 -19.046875l7.71875 0zm1.4899597 13.34375q0 -4.125 1.5625 -7.25q1.5625 -3.125 4.25 -4.796875q2.6875 -1.6875 6.0 -1.6875q2.828125 0 4.953125 1.15625q2.140625 1.15625 3.296875 3.03125l0 -3.796875l8.203125 0l0 26.78125l-8.203125 0l0 -3.796875q-1.203125 1.875 -3.34375 3.03125q-2.125 1.15625 -4.953125 1.15625q-3.265625 0 -5.953125 -1.703125q-2.6875 -1.71875 -4.25 -4.859375q-1.5625 -3.140625 -1.5625 -7.265625zm20.0625 0.046875q0 -3.078125 -1.703125 -4.84375q-1.703125 -1.78125 -4.15625 -1.78125q-2.4375 0 -4.140625 1.75q-1.703125 1.75 -1.703125 4.828125q0 3.0625 1.703125 4.875q1.703125 1.796875 4.140625 1.796875q2.453125 0 4.15625 -1.765625q1.703125 -1.78125 1.703125 -4.859375zm41.529564 -13.390625l-16.812492 39.5l-8.828125 0l6.140625 -13.625l-10.890625 -25.875l9.171875 0l6.1875 16.75l6.140625 -16.75l8.890617 0zm11.17981 3.796875q1.203125 -1.875 3.3125 -3.03125q2.109375 -1.15625 4.9375 -1.15625q3.3125 0 6.0 1.6875q2.6875 1.671875 4.25 4.796875q1.5625 3.125 1.5625 7.25q0 4.125 -1.5625 7.265625q-1.5625 3.140625 -4.25 4.859375q-2.6875 1.703125 -6.0 1.703125q-2.78125 0 -4.921875 -1.15625q-2.125 -1.15625 -3.328125 -2.984375l0 16.515625l-8.21875 0l0 -39.546875l8.21875 0l0 3.796875zm11.703125 9.546875q0 -3.078125 -1.703125 -4.828125q-1.703125 -1.75 -4.203125 -1.75q-2.4375 0 -4.140625 1.78125q-1.703125 1.765625 -1.703125 4.84375q0 3.078125 1.703125 4.859375q1.703125 1.765625 4.140625 1.765625q2.453125 0 4.171875 -1.796875q1.734375 -1.8125 1.734375 -4.875zm24.873322 13.828125q-3.9375 0 -7.09375 -1.671875q-3.140625 -1.6875 -4.9375 -4.8125q-1.796875 -3.125 -1.796875 -7.296875q0 -4.125 1.8125 -7.265625q1.828125 -3.15625 5.0 -4.828125q3.171875 -1.6875 7.109375 -1.6875q3.9375 0 7.09375 1.6875q3.171875 1.671875 5.0 4.828125q1.828125 3.140625 1.828125 7.265625q0 4.125 -1.859375 7.28125q-1.84375 3.140625 -5.03125 4.828125q-3.1875 1.671875 -7.125 1.671875zm0 -7.109375q2.34375 0 4.0 -1.71875q1.65625 -1.734375 1.65625 -4.953125q0 -3.21875 -1.609375 -4.9375q-1.609375 -1.734375 -3.953125 -1.734375q-2.40625 0 -3.984375 1.703125q-1.578125 1.703125 -1.578125 4.96875q0 3.21875 1.546875 4.953125q1.5625 1.71875 3.921875 1.71875zm22.513565 -22.84375q-2.171875 0 -3.546875 -1.265625q-1.359375 -1.28125 -1.359375 -3.15625q0 -1.921875 1.359375 -3.1875q1.375 -1.28125 3.546875 -1.28125q2.109375 0 3.46875 1.28125q1.375 1.265625 1.375 3.1875q0 1.875 -1.375 3.15625q-1.359375 1.265625 -3.46875 1.265625zm4.078125 2.78125l0 26.78125l-8.21875 0l0 -26.78125l8.21875 0zm22.26941 -0.296875q4.703125 0 7.5 3.0625q2.8125 3.046875 2.8125 8.375l0 15.640625l-8.15625 0l0 -14.546875q0 -2.6875 -1.390625 -4.171875q-1.390625 -1.484375 -3.75 -1.484375q-2.34375 0 -3.734375 1.484375q-1.390625 1.484375 -1.390625 4.171875l0 14.546875l-8.21875 0l0 -26.78125l8.21875 0l0 3.546875q1.25 -1.78125 3.359375 -2.8125q2.109375 -1.03125 4.75 -1.03125zm30.961441 20.125l0 6.953125l-4.171875 0q-4.46875 0 -6.96875 -2.1875q-2.5 -2.1875 -2.5 -7.125l0 -10.65625l-3.25 0l0 -6.8125l3.25 0l0 -6.53125l8.21875 0l0 6.53125l5.375 0l0 6.8125l-5.375 0l0 10.75q0 1.203125 0.5625 1.734375q0.578125 0.53125 1.921875 0.53125l2.9375 0z" fill-rule="nonzero"/><path fill="#ffffff" d="m247.13239 18.749763l0 0c9.941132 0 18.0 -8.058874 18.0 -18.0l0 0l0 0c0 9.941126 8.058868 18.0 18.0 18.0l0 0l0 0c-9.941132 0 -18.0 8.058874 -18.0 18.0l0 0c0 -9.941126 -8.058868 -18.0 -18.0 -18.0z" fill-rule="evenodd"/></g></svg>